G04*
G04 #@! TF.GenerationSoftware,Altium Limited,Altium Designer,23.3.1 (30)*
G04*
G04 Layer_Color=8421504*
%FSLAX44Y44*%
%MOMM*%
G71*
G04*
G04 #@! TF.SameCoordinates,92076935-D0C0-4AE0-889B-4FEA7ABF897C*
G04*
G04*
G04 #@! TF.FilePolarity,Positive*
G04*
G01*
G75*
%ADD14R,0.8500X0.8500*%
%ADD15R,0.6000X1.0000*%
%ADD16R,0.7000X6.7600*%
%ADD17R,3.9000X6.7600*%
%ADD18R,1.8000X7.5000*%
%ADD19R,0.3500X0.4500*%
%ADD20R,0.4500X0.4500*%
D14*
X355600Y177800D02*
D03*
Y189300D02*
D03*
X203200Y234350D02*
D03*
Y222850D02*
D03*
X177800Y159350D02*
D03*
Y170850D02*
D03*
X317500Y189300D02*
D03*
Y177800D02*
D03*
X177800Y234350D02*
D03*
Y222850D02*
D03*
D15*
X263500Y165800D02*
D03*
X254000D02*
D03*
X244500D02*
D03*
Y189800D02*
D03*
X254000D02*
D03*
X263500D02*
D03*
D16*
X487200Y215900D02*
D03*
X427200D02*
D03*
X487200Y114300D02*
D03*
X427200D02*
D03*
D17*
X457200Y215900D02*
D03*
Y114300D02*
D03*
D18*
X264100Y88900D02*
D03*
X320100D02*
D03*
D19*
X289560Y214780D02*
D03*
Y208280D02*
D03*
D20*
X292100Y190500D02*
D03*
X284100D02*
D03*
M02*
