M48
;Layer_Color=9474304
;FILE_FORMAT=4:4
METRIC,LZ
;TYPE=PLATED
T1F00S00C0.3810
T2F00S00C0.5080
T3F00S00C0.7112
T4F00S00C0.7620
T6F00S00C1.5240
%
T01
X0021844Y0016256
X0028448Y0016764
X00254Y002032
T02
X0050292Y0008128
Y0009144
Y001016
Y0011176
X00502604Y0012164
X0050292Y0013208
Y0014224
X004953Y00177722
X0049784Y0019304
Y002032
Y0021336
Y0022352
Y0023368
Y0024384
T03
X0019812Y0016764
X0034036Y0014224
X0033528Y0019304
X003175Y002286
X003556
X002667Y002159
X0020828Y002794
X001905
T04
X002794Y000254
X003048
X003302
X003556
X00381
X004064
X004318
X00508
X005334
X005588
X005842
X006096
Y004826
X005842
X005588
X005334
X00508
X004826
X004572
X00381
X003556
X003302
X003048
X002794
X00254
X002286
X002032
X001778
T06
X000381Y002921
Y003429
M30
