G04*
G04 #@! TF.GenerationSoftware,Altium Limited,Altium Designer,23.3.1 (30)*
G04*
G04 Layer_Color=65535*
%FSLAX44Y44*%
%MOMM*%
G71*
G04*
G04 #@! TF.SameCoordinates,92076935-D0C0-4AE0-889B-4FEA7ABF897C*
G04*
G04*
G04 #@! TF.FilePolarity,Positive*
G04*
G01*
G75*
%ADD10C,0.2500*%
%ADD11C,0.2000*%
%ADD12C,0.4000*%
%ADD13C,0.2540*%
D10*
X273250Y189800D02*
G03*
X273250Y189800I-1250J0D01*
G01*
D11*
X239000Y174800D02*
X269000D01*
X239000Y180800D02*
X269000D01*
X239000Y174800D02*
Y180800D01*
X269000Y174800D02*
Y180800D01*
X251100Y129900D02*
X251350D01*
X276850D02*
X307350D01*
X332850D02*
X333100D01*
Y47900D02*
Y129900D01*
X251100Y47900D02*
X251350D01*
X276850D02*
X307350D01*
X332850D02*
X333100D01*
X251100D02*
Y129900D01*
D12*
X416700Y180900D02*
Y250900D01*
Y79300D02*
Y149300D01*
D13*
X33017Y253996D02*
X30477Y256535D01*
X25399D01*
X22860Y253996D01*
Y243839D01*
X25399Y241300D01*
X30477D01*
X33017Y243839D01*
Y248918D01*
X27938D01*
X38095Y241300D02*
Y256535D01*
X48252Y241300D01*
Y256535D01*
X53330D02*
Y241300D01*
X60948D01*
X63487Y243839D01*
Y253996D01*
X60948Y256535D01*
X53330D01*
X63500Y347980D02*
Y363215D01*
X71118D01*
X73657Y360676D01*
Y355597D01*
X71118Y353058D01*
X63500D01*
X78735Y363215D02*
Y347980D01*
X83813Y353058D01*
X88892Y347980D01*
Y363215D01*
X93970Y347980D02*
Y363215D01*
X101588D01*
X104127Y360676D01*
Y355597D01*
X101588Y353058D01*
X93970D01*
X99049D02*
X104127Y347980D01*
X298878Y243842D02*
Y253998D01*
X303957D01*
X305650Y252306D01*
Y248920D01*
X303957Y247227D01*
X298878D01*
X302264D02*
X305650Y243842D01*
X310728D02*
Y252306D01*
Y248920D01*
X309035D01*
X312421D01*
X310728D01*
Y252306D01*
X312421Y253998D01*
X317499D02*
Y243842D01*
X322578D01*
X324270Y245534D01*
Y247227D01*
Y248920D01*
X322578Y250613D01*
X317499D01*
X329349Y252306D02*
Y250613D01*
X327656D01*
X331041D01*
X329349D01*
Y245534D01*
X331041Y243842D01*
X342906D02*
Y253998D01*
X347984D01*
X349677Y252306D01*
Y248920D01*
X347984Y247227D01*
X342906D01*
X346291D02*
X349677Y243842D01*
X354755D02*
Y252306D01*
Y248920D01*
X353063D01*
X356448D01*
X354755D01*
Y252306D01*
X356448Y253998D01*
X361526D02*
Y243842D01*
X366605D01*
X368298Y245534D01*
Y247227D01*
Y248920D01*
X366605Y250613D01*
X361526D01*
X371683Y253998D02*
Y243842D01*
X376762D01*
X378454Y245534D01*
Y247227D01*
Y248920D01*
X376762Y250613D01*
X371683D01*
X264163Y149858D02*
Y134622D01*
X274320D01*
X279398D02*
X284477D01*
X281938D01*
Y149858D01*
X279398Y147318D01*
X373384Y134618D02*
Y119382D01*
X381002D01*
X383541Y121922D01*
Y132078D01*
X381002Y134618D01*
X373384D01*
X398776Y119382D02*
X388619D01*
X398776Y129539D01*
Y132078D01*
X396237Y134618D01*
X391158D01*
X388619Y132078D01*
X401323Y276857D02*
Y261623D01*
X408941D01*
X411480Y264162D01*
Y274318D01*
X408941Y276857D01*
X401323D01*
X416558Y261623D02*
X421637D01*
X419098D01*
Y276857D01*
X416558Y274318D01*
X367668Y210819D02*
X366398Y212089D01*
X363859D01*
X362589Y210819D01*
Y205741D01*
X363859Y204471D01*
X366398D01*
X367668Y205741D01*
X370207Y204471D02*
X372746D01*
X371476D01*
Y209550D01*
X370207D01*
X376555Y204471D02*
Y209550D01*
X380364D01*
X381633Y208280D01*
Y204471D01*
X389251Y212089D02*
X384172D01*
Y208280D01*
X386712Y209550D01*
X387981D01*
X389251Y208280D01*
Y205741D01*
X387981Y204471D01*
X385442D01*
X384172Y205741D01*
X263738Y240453D02*
X262892Y241299D01*
X261199D01*
X260353Y240453D01*
Y237067D01*
X261199Y236221D01*
X262892D01*
X263738Y237067D01*
X265431Y236221D02*
X267124D01*
X266278D01*
Y239606D01*
X265431D01*
X269663Y236221D02*
Y239606D01*
X272202D01*
X273049Y238760D01*
Y236221D01*
X277281D02*
Y241299D01*
X274742Y238760D01*
X278127D01*
X146055Y208278D02*
X143516Y210818D01*
X138438D01*
X135899Y208278D01*
Y198122D01*
X138438Y195583D01*
X143516D01*
X146055Y198122D01*
X151134Y195583D02*
X156212D01*
X153673D01*
Y205739D01*
X151134D01*
X163830Y195583D02*
Y205739D01*
X171447D01*
X173986Y203200D01*
Y195583D01*
X179065Y208278D02*
X181604Y210818D01*
X186682D01*
X189221Y208278D01*
Y205739D01*
X186682Y203200D01*
X184143D01*
X186682D01*
X189221Y200661D01*
Y198122D01*
X186682Y195583D01*
X181604D01*
X179065Y198122D01*
X201935Y325118D02*
X199396Y327658D01*
X194318D01*
X191779Y325118D01*
Y314962D01*
X194318Y312423D01*
X199396D01*
X201935Y314962D01*
X207014Y312423D02*
X212092D01*
X209553D01*
Y322579D01*
X207014D01*
X219710Y312423D02*
Y322579D01*
X227327D01*
X229866Y320040D01*
Y312423D01*
X245101D02*
X234945D01*
X245101Y322579D01*
Y325118D01*
X242562Y327658D01*
X237484D01*
X234945Y325118D01*
X138434D02*
X135895Y327658D01*
X130817D01*
X128278Y325118D01*
Y314962D01*
X130817Y312423D01*
X135895D01*
X138434Y314962D01*
X143513Y312423D02*
X148591D01*
X146052D01*
Y322579D01*
X143513D01*
X156209Y312423D02*
Y322579D01*
X163826D01*
X166366Y320040D01*
Y312423D01*
X171444D02*
X176522D01*
X173983D01*
Y327658D01*
X171444Y325118D01*
X125307Y487678D02*
X121922D01*
X123614D01*
Y479214D01*
X121922Y477522D01*
X120229D01*
X118536Y479214D01*
X133771Y477522D02*
Y487678D01*
X128693Y482600D01*
X135464D01*
X226061Y33017D02*
X220982D01*
X223522D01*
Y20322D01*
X220982Y17782D01*
X218443D01*
X215904Y20322D01*
X231139Y30478D02*
X233678Y33017D01*
X238757D01*
X241296Y30478D01*
Y27939D01*
X238757Y25400D01*
X236217D01*
X238757D01*
X241296Y22861D01*
Y20322D01*
X238757Y17782D01*
X233678D01*
X231139Y20322D01*
X404707Y487678D02*
X401322D01*
X403014D01*
Y479214D01*
X401322Y477522D01*
X399629D01*
X397936Y479214D01*
X414864Y487678D02*
X408093D01*
Y482600D01*
X411478Y484293D01*
X413171D01*
X414864Y482600D01*
Y479214D01*
X413171Y477522D01*
X409786D01*
X408093Y479214D01*
X454661Y33017D02*
X449582D01*
X452122D01*
Y20322D01*
X449582Y17782D01*
X447043D01*
X444504Y20322D01*
X469896Y17782D02*
X459739D01*
X469896Y27939D01*
Y30478D01*
X467357Y33017D01*
X462278D01*
X459739Y30478D01*
X189654Y150706D02*
X196426Y143934D01*
X189654D02*
X196426Y150706D01*
X189654Y147320D02*
X196426D01*
X193040Y143934D02*
Y150706D01*
M02*
